<svg width="83" height="82" viewBox="0 0 83 82" fill="none" xmlns="http://www.w3.org/2000/svg">
<g clip-path="url(#clip0_2127_6354)">
<path d="M71.5375 19.1348L66.8568 73.4154C59.9202 78.7973 51.2098 82.0003 41.7497 82.0003C32.2896 82.0003 23.5792 78.7973 16.6426 73.4154L11.9619 19.1348H71.5375Z" fill="#006BC0"/>
<path d="M41.7493 24.2375V80.926L61.3319 75.3976L65.7003 24.2375H41.7493Z" fill="#0096DC"/>
<path d="M59.052 46.4109H44.9285L59.6867 38.9L60.3245 31.3496H23.1733L23.8234 39.0475H38.7367L24.4277 46.2022L25.0935 54.0881H50.6182L49.7815 63.4802L41.7489 65.6557L33.3815 63.3128L33.1724 57.4557H25.3779L26.3529 69.0027L41.7489 73.3536L57.1447 69.0027L59.0525 46.4096L59.052 46.4109Z" fill="white"/>
<path d="M27.232 10.7653V5.4102H34.9299V2.50961H24.4429V13.6659H34.9299V10.7653H27.232Z" fill="#222123"/>
<path d="M39.4343 6.87436V5.53545H47.0905V5.41005V2.50946H36.6033V9.42629H44.1199V10.7652H36.6033V13.6658H47.0905V10.7652V6.87436H39.4343Z" fill="#222123"/>
<path d="M51.3997 6.87436V5.53545H59.0558V5.41005V2.50946H48.5688V9.42629H56.0854V10.7652H48.5688V13.6658H59.0558V10.7652V6.87436H51.3997Z" fill="#222123"/>
</g>
<defs>
<clipPath id="clip0_2127_6354">
<rect width="82" height="82" fill="white" transform="translate(0.75)"/>
</clipPath>
</defs>
</svg>
