<svg width="59" height="82" viewBox="0 0 59 82" fill="none" xmlns="http://www.w3.org/2000/svg">
<path d="M5.61133 0H9.29492V3.65155H12.6902V0H16.3738V11.0508H12.6902V7.36717H9.32695V11.0508H5.61133V0ZM21.2426 3.68359H17.9914V0H28.1934V3.68359H24.9262V11.0508H21.2426V3.68359ZM29.8109 0H33.6707L36.041 3.89179L38.4113 0H42.2711V11.0508H38.5875V5.57343L36.009 9.54529L33.4305 5.57343V11.0508H29.8109V0ZM44.0969 0H47.7805V7.3992H53.0016V11.0508H44.0969V0Z" fill="black"/>
<path d="M5.48291 75.4341L0.197754 16.1123H58.3024L53.0173 75.402L29.2021 82.0004" fill="#FF4C1E"/>
<path d="M29.2502 76.9549V20.9804H53.0014L48.469 71.5897L29.2502 76.9549Z" fill="#FF651E"/>
<path d="M10.9927 28.2354H29.2505L31.9653 31.8709L29.2505 35.5064H18.9685L19.6411 42.9537H29.2505L31.9653 46.7252L29.2505 50.2087H12.9786L10.9927 28.2354ZM13.2989 53.8603H20.6021L21.1146 59.674L29.2505 61.8521L32.3138 65.4812L29.2505 69.4435L14.3239 65.2794L13.2989 53.8603Z" fill="#EBEBEB"/>
<path d="M47.444 28.2354H29.2183V35.5064H46.7714L47.444 28.2354ZM46.1147 42.9537H29.2183V50.2248H38.187L37.3382 59.674L29.2183 61.8521V69.4114L44.1128 65.2794L46.1147 42.9537Z" fill="white"/>
</svg>
