<svg width="83" height="82" viewBox="0 0 83 82" fill="none" xmlns="http://www.w3.org/2000/svg">
<path d="M0.250244 -0.000915527H82.2502V81.9991H0.250244V-0.000915527Z" fill="#FFDF00"/>
<path d="M55.3336 64.062C56.9853 66.7589 59.1342 68.7411 62.9349 68.7411C66.1276 68.7411 68.1672 67.1453 68.1672 64.9404C68.1672 62.2982 66.0717 61.3624 62.5574 59.8252L60.6311 58.9986C55.0706 56.6298 51.3768 53.6621 51.3768 47.3884C51.3768 41.6094 55.7801 37.21 62.6615 37.21C67.5607 37.21 71.0829 38.915 73.6209 43.3796L67.6206 47.2323C66.2995 44.8634 64.8742 43.9302 62.6615 43.9302C60.4046 43.9302 58.9741 45.362 58.9741 47.2323C58.9741 49.544 60.4059 50.4798 63.7118 51.9116L65.6382 52.7367C72.1852 55.5442 75.8816 58.4064 75.8816 64.8415C75.8816 71.7789 70.4318 75.5796 63.113 75.5796C55.9569 75.5796 51.3337 72.1694 49.0715 67.6998L55.3336 64.062ZM28.1134 64.7297C29.3239 66.8774 30.4251 68.6931 33.0725 68.6931C35.6041 68.6931 37.2012 67.7025 37.2012 63.8512V37.6501H44.9066V63.9552C44.9066 71.9338 40.2288 75.5654 33.4005 75.5654C27.231 75.5654 23.6582 72.3725 21.8411 68.527L28.1134 64.7297Z" fill="black"/>
</svg>
