<svg width="135" height="82" viewBox="0 0 135 82" fill="none" xmlns="http://www.w3.org/2000/svg">
<g clip-path="url(#clip0_2127_6369)">
<path d="M66.9816 82.0002C66.5397 82.0002 66.1009 81.8843 65.7135 81.6612L61.6769 79.2714C61.074 78.9343 61.3681 78.815 61.567 78.7463C62.3709 78.4648 62.534 78.4013 63.3921 77.914C63.4822 77.8625 63.6003 77.8807 63.6926 77.9352L66.7937 79.7754C66.9057 79.8359 67.0646 79.8359 67.1684 79.7754L79.2597 72.796C79.3717 72.7324 79.4444 72.6023 79.4444 72.4691V58.5164C79.4444 58.3771 79.3717 58.253 79.2573 58.1834L67.1708 51.2101C67.0588 51.1435 66.9105 51.1435 66.7985 51.2101L54.7144 58.1834C54.5973 58.25 54.5228 58.3802 54.5228 58.5133V72.4661C54.5228 72.5992 54.5955 72.7264 54.7105 72.7899L58.0216 74.7027C59.8194 75.6016 60.9181 74.5423 60.9181 73.477V59.7058C60.9181 59.5091 61.0724 59.3578 61.2692 59.3578H62.8006C62.9913 59.3578 63.1487 59.5091 63.1487 59.7058V73.483C63.1487 75.8801 61.8412 77.2572 59.5682 77.2572C58.8691 77.2572 58.3182 77.2572 56.7807 76.5006L53.6088 74.6725C52.8249 74.2185 52.3406 73.371 52.3406 72.4661V58.5133C52.3406 57.6053 52.8249 56.7579 53.6088 56.31L65.7123 49.3275C66.478 48.8947 67.4949 48.8947 68.2546 49.3275L80.343 56.313C81.1238 56.7639 81.6111 57.6084 81.6111 58.5164V72.4691C81.6111 73.3741 81.1238 74.2185 80.343 74.6725L68.2546 81.6549C67.8672 81.8789 67.4284 81.9939 66.9804 81.9939" fill="#689F63"/>
<path d="M70.716 72.3855C65.4255 72.3855 64.3162 69.957 64.3162 67.9201C64.3162 67.7264 64.4724 67.572 64.6664 67.572H66.2281C66.4007 67.572 66.5459 67.6976 66.5732 67.868C66.8093 69.4594 67.5114 70.2621 70.7106 70.2621C73.259 70.2621 74.3425 69.6864 74.3425 68.335C74.3425 67.5572 74.0338 66.9791 70.075 66.5917C66.7639 66.2648 64.7179 65.5354 64.7179 62.8871C64.7179 60.4476 66.776 58.9949 70.2233 58.9949C74.0943 58.9949 76.0132 60.3387 76.2553 63.2261C76.2644 63.326 76.2281 63.4228 76.1615 63.4954C76.0949 63.5651 76.0011 63.6074 75.9043 63.6074H74.3334C74.17 63.6074 74.0278 63.4924 73.9945 63.335C73.6161 61.6613 72.7021 61.1256 70.2172 61.1256C67.4358 61.1256 67.1119 62.0941 67.1119 62.8205C67.1119 63.7013 67.4933 63.9585 71.2463 64.4549C74.963 64.9482 76.7275 65.6443 76.7275 68.2563C76.7275 70.8895 74.5302 72.3998 70.6985 72.3998M85.426 57.6026H85.8316C86.1645 57.6026 86.2281 57.3696 86.2281 57.2334C86.2281 56.8762 85.9829 56.8762 85.8467 56.8762H85.429L85.426 57.6026ZM84.9327 56.4585H85.8316C86.1403 56.4585 86.7456 56.4585 86.7456 57.1486C86.7456 57.6298 86.4369 57.7297 86.2523 57.7903C86.6124 57.8145 86.6367 58.0506 86.6851 58.3835C86.7093 58.5923 86.7486 58.9525 86.8213 59.0735H86.2674C86.2523 58.9525 86.1675 58.2866 86.1675 58.2503C86.1312 58.102 86.0798 58.0294 85.8951 58.0294H85.4381V59.0766H84.9327V56.4585ZM83.8522 57.76C83.8522 58.8435 84.7269 59.7212 85.8013 59.7212C86.8848 59.7212 87.7595 58.8254 87.7595 57.76C87.7595 56.6734 86.8727 55.8108 85.7983 55.8108C84.739 55.8108 83.8491 56.6613 83.8491 57.757M88.1348 57.766C88.1348 59.0493 87.0846 60.0965 85.8043 60.0965C84.5332 60.0965 83.4738 59.0614 83.4738 57.766C83.4738 56.4464 84.5574 55.4355 85.8043 55.4355C87.0604 55.4355 88.1318 56.4495 88.1318 57.766" fill="#689F63"/>
<path fill-rule="evenodd" clip-rule="evenodd" d="M29.539 27.406C29.539 26.8491 29.2455 26.3376 28.7648 26.0607L15.9453 18.6848C15.7289 18.5577 15.4864 18.4911 15.2407 18.482H15.1081C14.8623 18.4911 14.6199 18.5577 14.3999 18.6848L1.5809 26.0607C1.1033 26.3391 0.805481 26.8506 0.805481 27.4075L0.833629 47.2743C0.833629 47.5497 0.97588 47.807 1.21801 47.9432C1.45409 48.0884 1.7507 48.0884 1.98677 47.9432L9.60781 43.5788C10.089 43.2924 10.3826 42.7864 10.3826 42.2349V32.9538C10.3826 32.3999 10.6762 31.8884 11.1559 31.613L14.4005 29.7444C14.6414 29.6052 14.9059 29.5361 15.1753 29.5361C15.4404 29.5361 15.711 29.6045 15.9453 29.7441L19.1883 31.6121C19.6683 31.8875 19.9631 32.399 19.9631 32.9529V42.2334C19.9631 42.7843 20.2606 43.2928 20.7394 43.5773L28.3556 47.9386C28.5947 48.0809 28.8922 48.0809 29.1304 47.9386C29.3653 47.8024 29.5142 47.5452 29.5142 47.2697L29.539 27.406ZM90.0315 37.7498C90.0315 37.8881 89.958 38.0161 89.8378 38.0845L85.4347 40.6227C85.3152 40.6914 85.1675 40.6914 85.0482 40.6227L80.6445 38.0845C80.5234 38.0158 80.4508 37.8878 80.4508 37.7498V32.6663C80.4508 32.5277 80.5234 32.3999 80.6414 32.3303L85.0422 29.788C85.1632 29.7183 85.3115 29.7183 85.4326 29.788L89.8363 32.3303C89.9574 32.3999 90.03 32.5277 90.03 32.6663L90.0315 37.7498ZM91.221 0.0979971C90.9807 -0.0357796 90.6883 -0.0321477 90.451 0.106169C90.215 0.245394 90.0691 0.49963 90.0691 0.775053V20.4481C90.0691 20.6418 89.9662 20.8204 89.7985 20.9172C89.632 21.0141 89.4247 21.0141 89.2567 20.9172L86.0455 19.0677C85.5673 18.791 84.9783 18.791 84.4983 19.0677L71.6745 26.4687C71.1954 26.7441 70.8997 27.2556 70.8997 27.8064V42.6127C70.8997 43.1665 71.1954 43.675 71.6745 43.9535L84.4983 51.3596C84.9771 51.635 85.5667 51.635 86.047 51.3596L98.8708 43.9504C99.349 43.672 99.6456 43.1635 99.6456 42.6096V5.70905C99.6456 5.14731 99.3399 4.63067 98.8496 4.35615L91.221 0.0979971ZM133.925 32.5325C134.401 32.2559 134.694 31.745 134.694 31.1941V27.6058C134.694 27.0537 134.401 26.5443 133.923 26.2665L121.181 18.8694C120.7 18.591 120.11 18.591 119.629 18.8694L106.808 26.2695C106.327 26.548 106.033 27.0564 106.033 27.6103V42.4105C106.033 42.9674 106.333 43.4819 106.814 43.7573L119.553 51.0182C120.022 51.2876 120.597 51.2906 121.072 51.0273L128.778 46.7446C129.02 46.6084 129.175 46.3512 129.175 46.0727C129.175 45.7943 129.026 45.534 128.784 45.3978L115.885 37.9947C115.643 37.8585 115.494 37.6012 115.494 37.3258V32.6829C115.494 32.4057 115.64 32.1502 115.882 32.0122L119.895 29.6969C120.134 29.5576 120.428 29.5576 120.667 29.6969L124.683 32.0122C124.922 32.1484 125.07 32.4057 125.07 32.6811V36.3312C125.07 36.6066 125.219 36.8639 125.458 37.0031C125.697 37.1393 125.994 37.1393 126.233 37.0001L133.925 32.5325Z" fill="#333333"/>
<path fill-rule="evenodd" clip-rule="evenodd" d="M120.218 31.84C120.308 31.7864 120.422 31.7864 120.514 31.84L122.975 33.2595C123.067 33.3127 123.123 33.4108 123.123 33.5167V36.3587C123.123 36.4647 123.067 36.5627 122.975 36.616L120.514 38.0355C120.422 38.0891 120.308 38.0891 120.218 38.0355L117.759 36.616C117.665 36.5627 117.607 36.4647 117.607 36.3587V33.5167C117.607 33.4108 117.662 33.3127 117.756 33.2595L120.218 31.84Z" fill="#689F63"/>
<mask id="mask0_2127_6369" style="mask-type:luminance" maskUnits="userSpaceOnUse" x="35" y="18" width="30" height="34">
<path d="M49.4508 18.9421L36.6996 26.302C36.222 26.5774 35.929 27.0859 35.929 27.6355V42.3655C35.929 42.9154 36.222 43.4236 36.6996 43.699L49.4517 51.0646C49.9284 51.3391 50.5161 51.3391 50.9922 51.0646L63.7422 43.699C64.2173 43.4236 64.5109 42.9151 64.5109 42.3655V27.6355C64.5109 27.0859 64.2174 26.5774 63.7391 26.302L50.991 18.9421C50.7519 18.805 50.4856 18.7363 50.2192 18.7363C49.9529 18.7363 49.6865 18.805 49.4474 18.9421" fill="white"/>
</mask>
<g mask="url(#mask0_2127_6369)">
<path d="M77.3966 25.0535L41.466 7.44159L23.043 45.0244L58.9726 62.6372L77.3966 25.0535Z" fill="url(#paint0_linear_2127_6369)"/>
</g>
<mask id="mask1_2127_6369" style="mask-type:luminance" maskUnits="userSpaceOnUse" x="36" y="18" width="29" height="34">
<path d="M36.2444 43.302C36.3664 43.4603 36.519 43.5974 36.6984 43.7003L47.6367 50.0184L49.4587 51.0656C49.7311 51.223 50.0416 51.2896 50.3467 51.2669C50.4484 51.2587 50.5501 51.2397 50.6494 51.2115L64.0979 26.5869C63.9949 26.4749 63.8745 26.3811 63.7395 26.3024L55.3903 21.481L50.9768 18.9417C50.8515 18.869 50.7156 18.8176 50.5773 18.7812L36.2444 43.302Z" fill="white"/>
</mask>
<g mask="url(#mask1_2127_6369)">
<path d="M20.7095 30.2615L46.0801 64.5995L79.6333 39.8096L54.2611 5.4726L20.7095 30.2615Z" fill="url(#paint1_linear_2127_6369)"/>
</g>
<mask id="mask2_2127_6369" style="mask-type:luminance" maskUnits="userSpaceOnUse" x="36" y="18" width="29" height="34">
<path d="M50.0664 18.747C49.8524 18.7681 49.6433 18.8347 49.4505 18.9443L36.7357 26.283L50.4463 51.2556C50.6369 51.2284 50.8246 51.1648 50.9941 51.0668L63.7452 43.7012C64.1387 43.473 64.4081 43.0868 64.4898 42.6491L50.5128 18.7721C50.4099 18.7518 50.307 18.7412 50.2011 18.7412C50.1587 18.7412 50.1164 18.7433 50.074 18.7473" fill="white"/>
</mask>
<g mask="url(#mask2_2127_6369)">
<path d="M36.7352 18.7412V51.2562H64.4842V18.7412H36.7352Z" fill="url(#paint2_linear_2127_6369)"/>
</g>
</g>
<defs>
<linearGradient id="paint0_linear_2127_6369" x1="59.4205" y1="16.2199" x2="40.9987" y2="53.8001" gradientUnits="userSpaceOnUse">
<stop offset="0.3" stop-color="#3E863D"/>
<stop offset="0.5" stop-color="#55934F"/>
<stop offset="0.8" stop-color="#5AAD45"/>
</linearGradient>
<linearGradient id="paint1_linear_2127_6369" x1="33.5468" y1="47.6273" x2="67.1013" y2="22.8346" gradientUnits="userSpaceOnUse">
<stop offset="0.57" stop-color="#3E863D"/>
<stop offset="0.72" stop-color="#619857"/>
<stop offset="1" stop-color="#76AC64"/>
</linearGradient>
<linearGradient id="paint2_linear_2127_6369" x1="36.7445" y1="34.9996" x2="64.4894" y2="34.9996" gradientUnits="userSpaceOnUse">
<stop offset="0.16" stop-color="#6BBF47"/>
<stop offset="0.38" stop-color="#79B461"/>
<stop offset="0.47" stop-color="#75AC64"/>
<stop offset="0.7" stop-color="#659E5A"/>
<stop offset="0.9" stop-color="#3E863D"/>
</linearGradient>
<clipPath id="clip0_2127_6369">
<rect width="133.889" height="82" fill="white" transform="translate(0.805481)"/>
</clipPath>
</defs>
</svg>
